# xmcd CD database file
#
# Track frame offsets:
#	150
#	12504
#	31208
#	45080
#	71583
#	86799
#	102601
#	128191
#	146441
#	166810
#	177774
#
# Disc length: 2661 seconds
#
# Revision: 0
# Processed by: cddbd v1.5.2PL0 Copyright (c) Steve Scherf et al.
# Submitted via: CDex 1.79
#
DISCID=8b0a630b
DTITLE=Billy Rawlett - Latent Treasures
DYEAR=2001
DGENRE=Country
TTITLE0=Strange Girl
TTITLE1=From The Eyes Of A Child
TTITLE2=Your Lovin` Comes Easy
TTITLE3=Cryin` In The Wind
TTITLE4=Fallen Angel
TTITLE5=Horses Riding Through A Forgotten Time
TTITLE6=I Understand These Feelings
TTITLE7=I`ll Take The Hick I
TTITLE8=I Can`t Let Go
TTITLE9=You Are My Pearl
TTITLE10=Cryin` In The Wind (radio version)
EXTD=YEAR: 2001
EXTT0=
EXTT1=
EXTT2=
EXTT3=
EXTT4=
EXTT5=
EXTT6=
EXTT7=
EXTT8=
EXTT9=
EXTT10=
PLAYORDER=
